# xmcd CD database file
#
# Track frame offsets:
#	150
#	16595
#	31594
#	47345
#	63569
#	92452
#	113940
#	127573
#	144700
#	162686
#	176336
#	194904
#	213021
#	236335
#	252499
#
# Disc length: 3748 seconds
#
# Revision: 0
# Processed by: cddbd v1.5.2PL0 Copyright (c) Steve Scherf et al.
# Submitted via: ACXtractor (MTCDDB.DLL V2003.12.21)
#
DISCID=bf0ea20f
DTITLE=Fest noz - Année 80
DYEAR=1980
DGENRE=Celtic
TTITLE0=Re zo re
TTITLE1=Sans Bagage
TTITLE2=Rond de loudia
TTITLE3=Aline
TTITLE4=M,A,L,
TTITLE5=An dro /Neg la Cho
TTITLE6=En triplette cochichine
TTITLE7=Suite de ridées
TTITLE8=Reves sauvages Fisel
TTITLE9=Rond des cousins
TTITLE10=Plinn kervi
TTITLE11=Hag ar Blez-man
TTITLE12=La danse andro
TTITLE13=Tequila pourlet gavotte
TTITLE14=Dub DRONE
EXTD=ID3G:  88 YEAR: 1980
EXTT0=
EXTT1=
EXTT2=
EXTT3=
EXTT4=
EXTT5=
EXTT6=
EXTT7=
EXTT8=
EXTT9=
EXTT10=
EXTT11=
EXTT12=
EXTT13=
EXTT14=
PLAYORDER=
